<?xml version="1.0" standalone="no"?><!DOCTYPE svg PUBLIC "-//W3C//DTD SVG 1.1//EN" "http://www.w3.org/Graphics/SVG/1.1/DTD/svg11.dtd"><svg t="1526702214103" class="icon" style="" viewBox="0 0 1024 1024" version="1.1" xmlns="http://www.w3.org/2000/svg" p-id="1640" xmlns:xlink="http://www.w3.org/1999/xlink" width="200" height="200"><defs><style type="text/css"></style></defs><path d="M959.841953 243.121428v597.435688c0 29.839272-24.059268 53.898539-53.898539 53.898539H118.056586c-29.839272 0-53.898539-24.059268-53.898539-53.898539V243.121428c0-29.839272 24.059268-53.898539 53.898539-53.898539h787.886828c29.839272 0 53.898539 24.059268 53.898539 53.898539z" fill="#1296db" p-id="1641" data-spm-anchor-id="a313x.7781069.0.i1" class="selected"></path><path d="M959.841953 380.757779v322.235236h-216.099908c-88.939815 0-161.117618-72.177803-161.117618-161.117618 0-44.433783 17.773513-84.749312 47.107034-114.082834 29.333521-28.755521 69.576801-47.107035 114.082834-47.107034h216.027658z" fill="#FFFFFF" p-id="1642"></path><path d="M745.765046 541.803147m-76.296056 0a76.296056 76.296056 0 1 0 152.592112 0 76.296056 76.296056 0 1 0-152.592112 0Z" fill="#73A8F5" p-id="1643"></path></svg>